<svg id="Layer_1" data-name="Layer 1" xmlns="http://www.w3.org/2000/svg" xmlns:xlink="http://www.w3.org/1999/xlink" viewBox="0 0 165.033 166"><defs><style>.cls-1{fill:url(#linear-gradient);}.cls-2{fill:url(#linear-gradient-2);}.cls-3{fill:url(#linear-gradient-3);}.cls-4{fill:#231f20;}.cls-5{fill:url(#linear-gradient-4);}.cls-6{fill:url(#linear-gradient-5);}.cls-7{fill:url(#linear-gradient-6);}.cls-8{fill:url(#linear-gradient-7);}.cls-9{fill:url(#linear-gradient-8);}.cls-10{fill:url(#linear-gradient-9);}.cls-11{fill:url(#linear-gradient-10);}</style><linearGradient id="linear-gradient" x1="42.903" y1="30.405" x2="102.446" y2="157.741" gradientUnits="userSpaceOnUse"><stop offset="0.302" stop-color="#bdd331"/><stop offset="0.466" stop-color="#80ca90"/><stop offset="0.58" stop-color="#59c4ce"/><stop offset="0.637" stop-color="#5bc0cd"/><stop offset="0.696" stop-color="#60b3ca"/><stop offset="0.756" stop-color="#689ec5"/><stop offset="0.817" stop-color="#7481be"/><stop offset="0.819" stop-color="#7580be"/></linearGradient><linearGradient id="linear-gradient-2" x1="85.092" y1="10.677" x2="144.635" y2="138.013" xlink:href="#linear-gradient"/><linearGradient id="linear-gradient-3" x1="65.44" y1="19.867" x2="124.983" y2="147.202" xlink:href="#linear-gradient"/><linearGradient id="linear-gradient-4" x1="59.383" y1="22.701" x2="118.926" y2="150.037" xlink:href="#linear-gradient"/><linearGradient id="linear-gradient-5" x1="63.395" y1="20.825" x2="122.938" y2="148.161" xlink:href="#linear-gradient"/><linearGradient id="linear-gradient-6" x1="76.824" y1="40.644" x2="125.203" y2="144.106" xlink:href="#linear-gradient"/><linearGradient id="linear-gradient-7" x1="80.438" y1="38.954" x2="128.818" y2="142.416" xlink:href="#linear-gradient"/><linearGradient id="linear-gradient-8" x1="85.316" y1="36.673" x2="133.696" y2="140.135" xlink:href="#linear-gradient"/><linearGradient id="linear-gradient-9" x1="90.154" y1="34.41" x2="138.534" y2="137.872" xlink:href="#linear-gradient"/><linearGradient id="linear-gradient-10" x1="93.814" y1="32.699" x2="142.194" y2="136.161" xlink:href="#linear-gradient"/></defs><path class="cls-1" d="M86.689,88.226a12.917,12.917,0,0,0-9.8-3.987A11.43,11.43,0,0,0,71.82,85.26a9.75,9.75,0,0,0-1.787,1.1,6.256,6.256,0,0,0-1.317,1.375,12.689,12.689,0,0,0-.9,1.552,5.94,5.94,0,0,0-.53,1.63c-.091.55-.151.982-.176,1.3s-.041.595-.041.844a3.035,3.035,0,0,0,.159.884l.392-.078a6.574,6.574,0,0,1-.078-1.139,5.7,5.7,0,0,1,.313-1.69,7.656,7.656,0,0,1,4.518-4.793,10.386,10.386,0,0,1,4.2-.825,9.6,9.6,0,0,1,8.034,3.654,14.134,14.134,0,0,1,2.846,8.957,13.693,13.693,0,0,1-3.593,9.881,12.248,12.248,0,0,1-9.252,3.751,12.338,12.338,0,0,1-9.271-3.732q-3.615-3.732-3.615-10.371a20.191,20.191,0,0,1,1.12-6.757,9.361,9.361,0,0,1,3.672-4.872l-.235-.354a13.487,13.487,0,0,0-5.618,5.108A14.173,14.173,0,0,0,58.7,98.146a13.607,13.607,0,0,0,4.539,10.607,16.408,16.408,0,0,0,11.411,4.086A16.151,16.151,0,0,0,86,108.733a13.4,13.4,0,0,0,4.48-10.312A14.191,14.191,0,0,0,86.689,88.226Zm1.155,3.5V91.6a12.28,12.28,0,0,1,0,12.977S90.985,98.127,87.844,91.723Z" transform="translate(-1.233 -1.187)"/><path class="cls-2" d="M137.075,98.991a9.481,9.481,0,0,0-5.854-2.731,4.408,4.408,0,0,0,1.61-1.1,5.844,5.844,0,0,0,1.494-4.262,5.3,5.3,0,0,0-2.22-4.419,9.519,9.519,0,0,0-5.913-1.69h-6.6v.393h.471a2.45,2.45,0,0,1,1.748.688,2.572,2.572,0,0,1,.8,1.747v22.864q-4.085-1.728-4.871-7.581l-.432.078v.472a8.688,8.688,0,0,0,2.829,6.933q2.828,2.456,7.818,2.456a12.848,12.848,0,0,0,8.053-2.358,7.414,7.414,0,0,0,3.065-6.168A7.581,7.581,0,0,0,137.075,98.991Zm-4.394-5.607s.844-2.848-.357-4.943A4.162,4.162,0,0,1,132.681,93.384Zm1.348,15.978a8.117,8.117,0,0,1-5.872,2.023,20.112,20.112,0,0,1-2.986-.2V86.046h.51q5.7,0,5.7,5.186a5.265,5.265,0,0,1-1.434,4.066,4.913,4.913,0,0,1-3.438,1.316h-.04l.04.353h.039q4.716,0,7.307,2a5.633,5.633,0,0,1,1.63,2.082,7.582,7.582,0,0,1-1.453,8.309Zm3.467-8.357a5.636,5.636,0,0,1,0,6.149A8.774,8.774,0,0,0,137.5,101.005Z" transform="translate(-1.233 -1.187)"/><path class="cls-3" d="M126.626,118.653a9.572,9.572,0,0,1-4.595-1.257,14.83,14.83,0,0,1-2.613-1.827q-1.473-1.237-3.4-3.163t-8.721-9.428q-1.69-1.885-3.024-3.3h.039a5.929,5.929,0,0,0,4.714-2.3,8.289,8.289,0,0,0,1.925-5.5,6.682,6.682,0,0,0-2.1-5.147,7.861,7.861,0,0,0-5.558-1.944H92.683v.393H93.2a2.383,2.383,0,0,1,1.748.726,2.533,2.533,0,0,1,.766,1.749v21.8A2.55,2.55,0,0,1,93.2,111.9h-.512v.393h8.6l-.039-.393h-.471a2.517,2.517,0,0,1-2.514-2.475V86.007h4.871a4.306,4.306,0,0,1,3.595,1.767,7.568,7.568,0,0,1,1.276,4.6q0,3.458-2.318,4.95a4.658,4.658,0,0,1-1.453.688,10.421,10.421,0,0,1-1.631.353,29.8,29.8,0,0,1-3.044.1v.393q.745.08,2.122,1.61t5.579,6.188q4.2,4.656,5.675,6.345a25.963,25.963,0,0,0,3.281,3.143,13.435,13.435,0,0,0,1.965,1.453,14.792,14.792,0,0,0,2.1,1.041,9.814,9.814,0,0,0,2.1.609,14.51,14.51,0,0,0,2.258.157,11.731,11.731,0,0,0,2.928-.432v-.393A5.782,5.782,0,0,1,126.626,118.653ZM109.608,93.869s.844-2.849-.358-4.943A4.162,4.162,0,0,1,109.608,93.869Zm5.683,19.145s3.544,3.963,7.7,5.477A13.023,13.023,0,0,1,115.291,113.014Z" transform="translate(-1.233 -1.187)"/><path class="cls-4" d="M87.424,88.774A12.824,12.824,0,0,0,85.335,87,13.061,13.061,0,0,1,86.7,88.224a14.194,14.194,0,0,1,3.792,10.195,13.4,13.4,0,0,1-4.479,10.312,16.154,16.154,0,0,1-11.354,4.106,16.811,16.811,0,0,1-9.95-2.934,16.577,16.577,0,0,0,10.676,3.484,16.151,16.151,0,0,0,11.353-4.106,13.4,13.4,0,0,0,4.48-10.312A14.2,14.2,0,0,0,87.424,88.774Z" transform="translate(-1.233 -1.187)"/><path class="cls-4" d="M72.379,86.24a8.338,8.338,0,0,0-2.811,1.9c-.036.049-.083.093-.116.143a12.569,12.569,0,0,0-.9,1.552,5.976,5.976,0,0,0-.531,1.63c-.09.55-.15.983-.175,1.3s-.041.595-.041.844a3.035,3.035,0,0,0,.159.884l.391-.078a6.691,6.691,0,0,1-.077-1.139,5.733,5.733,0,0,1,.313-1.69,7.656,7.656,0,0,1,4.518-4.793,10.386,10.386,0,0,1,4.2-.825,10.232,10.232,0,0,1,5.938,1.688,9.936,9.936,0,0,0-6.664-2.238A10.386,10.386,0,0,0,72.379,86.24Z" transform="translate(-1.233 -1.187)"/><path class="cls-4" d="M62.853,90.8a20.19,20.19,0,0,0-1.119,6.757q0,6.639,3.614,10.371a12.3,12.3,0,0,0,1.939,1.636,12.57,12.57,0,0,1-1.213-1.086q-3.615-3.73-3.614-10.371a20.19,20.19,0,0,1,1.119-6.757,9.355,9.355,0,0,1,3.672-4.871l-.235-.355a14.8,14.8,0,0,0-2.394,1.542A10.026,10.026,0,0,0,62.853,90.8Z" transform="translate(-1.233 -1.187)"/><path class="cls-4" d="M93.418,85.73h.512a2.39,2.39,0,0,1,1.092.26c-.025-.027-.043-.057-.07-.084a2.424,2.424,0,0,0-.881-.569h-.653Z" transform="translate(-1.233 -1.187)"/><path class="cls-4" d="M108.859,86.731a6.682,6.682,0,0,1,2.1,5.147,8.293,8.293,0,0,1-1.924,5.5,5.93,5.93,0,0,1-4.715,2.3h-.038q1.334,1.414,3.023,3.3,6.8,7.5,8.722,9.428t3.4,3.163c.435.365.843.681,1.234.961-.167-.133-.334-.264-.508-.411q-1.473-1.237-3.4-3.163t-8.721-9.428q-1.69-1.885-3.024-3.3h.039a5.932,5.932,0,0,0,4.715-2.3,8.293,8.293,0,0,0,1.924-5.5,6.682,6.682,0,0,0-2.1-5.147,6.987,6.987,0,0,0-.884-.682C108.753,86.645,108.808,86.684,108.859,86.731Z" transform="translate(-1.233 -1.187)"/><path class="cls-4" d="M100.3,99.181v.22a1.563,1.563,0,0,1,.563.226A5.2,5.2,0,0,0,100.3,99.181Z" transform="translate(-1.233 -1.187)"/><path class="cls-4" d="M99.672,111.632A2.377,2.377,0,0,1,99,109.969V86.555h4.871a4.6,4.6,0,0,1,2.34.646,4.367,4.367,0,0,0-3.066-1.2H98.272v23.414A2.4,2.4,0,0,0,99,111.147,2.452,2.452,0,0,0,99.672,111.632Z" transform="translate(-1.233 -1.187)"/><path class="cls-4" d="M127.361,119.2c-.229,0-.459-.028-.689-.047a10.708,10.708,0,0,1-2.021.243,14.519,14.519,0,0,1-2.258-.157,9.814,9.814,0,0,1-2.1-.609,14.845,14.845,0,0,1-2.1-1.041c-.238-.142-.475-.311-.713-.477a12.974,12.974,0,0,0,1.439,1.027,14.886,14.886,0,0,0,2.1,1.041,9.838,9.838,0,0,0,2.1.609,14.51,14.51,0,0,0,2.258.157,11.685,11.685,0,0,0,2.928-.432v-.393A5.782,5.782,0,0,1,127.361,119.2Z" transform="translate(-1.233 -1.187)"/><path class="cls-4" d="M101.512,112.444a2.541,2.541,0,0,1-.879-.157H94.787a2.418,2.418,0,0,1-.857.157h-.512v.393h8.6l-.039-.393Z" transform="translate(-1.233 -1.187)"/><path class="cls-4" d="M128.315,97.05a5.42,5.42,0,0,1-1.073.112H127.2l.041.353h.038a12.236,12.236,0,0,1,6.853,1.691c-.09-.08-.177-.165-.272-.237A10.45,10.45,0,0,0,128.315,97.05Z" transform="translate(-1.233 -1.187)"/><path class="cls-4" d="M120.327,85.73h.471a2.5,2.5,0,0,1,1.139.27c-.041-.043-.073-.091-.117-.132a2.45,2.45,0,0,0-.852-.531h-.641Z" transform="translate(-1.233 -1.187)"/><path class="cls-4" d="M134.334,90.9a5.844,5.844,0,0,1-1.494,4.262,4.408,4.408,0,0,1-1.61,1.1c.452.065.878.153,1.292.251a4.528,4.528,0,0,0,1.044-.8,5.844,5.844,0,0,0,1.493-4.262,5.3,5.3,0,0,0-2.219-4.419c-.084-.064-.185-.108-.272-.168A5.237,5.237,0,0,1,134.334,90.9Z" transform="translate(-1.233 -1.187)"/><path class="cls-4" d="M137.809,99.539a7.334,7.334,0,0,0-1.309-1.113,7.224,7.224,0,0,1,.584.563,7.581,7.581,0,0,1,2,5.322,7.414,7.414,0,0,1-3.065,6.168,12.848,12.848,0,0,1-8.053,2.358,12.234,12.234,0,0,1-6.989-1.826,11.6,11.6,0,0,0,7.715,2.376,12.848,12.848,0,0,0,8.053-2.358,7.414,7.414,0,0,0,3.065-6.168A7.577,7.577,0,0,0,137.809,99.539Z" transform="translate(-1.233 -1.187)"/><path class="cls-4" d="M121.417,109.81a9.893,9.893,0,0,1-2.937-6.362l-.432.078V104c0,.186.014.361.022.542A8.419,8.419,0,0,0,121.417,109.81Z" transform="translate(-1.233 -1.187)"/><path class="cls-4" d="M125.906,86.594h.51a6.935,6.935,0,0,1,3.625.838,6.034,6.034,0,0,0-4.351-1.388h-.51v25.143c.225.034.483.051.726.077Z" transform="translate(-1.233 -1.187)"/><path class="cls-5" d="M166.228,99.2l-.052,1.09-.026.544c-.01.182-.026.363-.038.544l-.078,1.087c-.027.362-.067.723-.1,1.084-.062.723-.157,1.443-.241,2.163-.02.18-.045.359-.072.538l-.078.538-.079.538-.039.269-.045.267a67.24,67.24,0,0,1-1.928,8.451,66.256,66.256,0,0,1-6.992,15.725l-.566.914c-.191.3-.39.6-.585.9l-.293.45c-.1.15-.2.3-.3.444l-.608.886-.628.872-.314.435-.325.427-.649.855-.669.839c-.113.139-.221.281-.337.418l-.344.411c-.231.273-.456.55-.69.821-.472.537-.935,1.081-1.424,1.6-.96,1.059-1.966,2.073-2.993,3.064l-.779.735c-.259.244-.528.479-.792.719s-.529.478-.8.708l-.81.7-.825.68-.413.34-.42.329-.842.659-.857.638c-.143.1-.285.213-.429.317l-.436.309c-.292.2-.58.413-.873.615-.593.4-1.177.8-1.781,1.178-1.195.773-2.422,1.492-3.662,2.188l-.937.509c-.155.087-.313.168-.471.249l-.474.243c-.629.331-1.273.632-1.912.942-1.289.6-2.587,1.174-3.912,1.683a64.7,64.7,0,0,1-24.938,4.509l-1.061-.022-1.061-.047-.53-.023-.529-.037-1.059-.072c-1.409-.124-2.817-.265-4.215-.479a64.491,64.491,0,0,1-8.287-1.767c-1.357-.393-2.708-.808-4.037-1.289-.668-.229-1.325-.489-1.986-.74-.33-.125-.654-.266-.981-.4s-.655-.265-.977-.411l-.97-.426c-.323-.143-.64-.3-.961-.445-.643-.292-1.27-.619-1.9-.93-.314-.161-.625-.329-.937-.493L69.4,155.8c-.155-.083-.308-.172-.463-.257l-.924-.518-.912-.539A65.427,65.427,0,0,1,43.677,130.48c-.357-.611-.679-1.241-1.017-1.863-.163-.313-.32-.631-.48-.946l-.239-.474c-.079-.158-.153-.319-.229-.478l-.456-.959-.432-.97-.216-.485-.2-.49-.408-.98-.384-.99-.191-.5-.18-.5-.358-1-.337-1.007c-.056-.169-.114-.336-.168-.505l-.156-.507-.311-1.016-.287-1.024c-.047-.171-.1-.341-.142-.512l-.131-.515-.26-1.031-.235-1.037-.117-.518-.1-.522-.209-1.043-.184-1.048-.091-.524-.079-.526-.157-1.052-.133-1.057-.067-.528c-.021-.176-.036-.353-.054-.529l-.107-1.06c-.032-.354-.055-.708-.083-1.062s-.057-.708-.07-1.063l-.053-1.065c-.011-.177-.015-.355-.019-.532l-.013-.533L35.3,99.5c-.005-.178-.009-.356-.006-.533L35.3,97.9a67.173,67.173,0,0,1,.609-8.51,66.169,66.169,0,0,1,1.71-8.373,65.434,65.434,0,0,1,2.793-8.1q.942-2.25,2.056-4.427A15.284,15.284,0,0,1,47.128,63.3c5.7-3.642,18.35-1.058,26.151-7.729,7.434-6.358,10.45-16.775,9.843-26.538S78.736,10,74.486,1.187c-1.4,5.368-5.273,9.782-9.661,13.175s-9.353,5.952-13.981,9.009-9.037,6.759-11.59,11.683a27.683,27.683,0,0,0-2.7,13.592c.144,4.668,2.018,9.65,3.979,14.15,0,0,3.546-6.476,8.363-10.408C68.669,36.251,71.379,26.137,71.749,23.831c-1.323,10.783-7.774,17.491-13.346,22.9-1,.971-1.956,1.9-2.882,2.809A65.821,65.821,0,0,0,42.67,64.276a66.65,66.65,0,0,0-4.247,7.766q-.855,1.845-1.591,3.745A15.456,15.456,0,0,0,33.134,66c-2.786-3.416-6.663-5.79-10.521-7.861-.736-.467-1.5-.94-2.29-1.436-4.424-2.761-9.61-6.254-12-13.152.559,1.445,3.749,7.711,19.045,15.525a27.488,27.488,0,0,1,6.962,5.65c.651-3.231,1.176-6.767.611-9.852a18.581,18.581,0,0,0-3.7-8.541c-2.371-2.872-5.79-4.679-9.26-6.031s-7.092-2.33-10.453-3.936S5,32.4,3.325,29.078C1.781,35.463.612,42.086,1.594,48.582S6.029,61.488,11.809,64.611c6.064,3.276,13.1-.336,17.218,1.57,4.44,2.054,6.7,10.823,5.654,16.1l0,0a67.193,67.193,0,0,0,5.879,49.936,67.477,67.477,0,0,0,41.063,32.541A66.865,66.865,0,0,0,90.4,166.56c1.48.213,2.968.349,4.456.466l1.118.066.559.032.56.018,1.119.035,1.119.009a68.168,68.168,0,0,0,8.929-.546c.37-.041.739-.1,1.108-.152s.738-.1,1.106-.165l1.1-.191c.183-.033.367-.062.55-.1l.548-.11c.366-.074.732-.145,1.1-.222l1.09-.247c.182-.042.364-.081.545-.125l.542-.137,1.083-.276,1.077-.3c.179-.05.359-.1.538-.152l.534-.164,1.068-.329,1.059-.354c.177-.06.354-.117.53-.179l.525-.19c.35-.128.7-.252,1.049-.383.693-.273,1.391-.532,2.074-.829,1.377-.567,2.724-1.2,4.059-1.857.662-.34,1.328-.671,1.978-1.032l.49-.266q.246-.13.488-.27l.967-.555c1.28-.756,2.545-1.537,3.768-2.38.619-.41,1.217-.85,1.822-1.279.3-.219.595-.445.893-.666l.445-.334c.147-.113.292-.229.438-.344l.873-.689.858-.709.427-.355.42-.365.838-.73c.546-.5,1.1-.993,1.63-1.512.266-.258.537-.511.8-.773l.783-.789a66.5,66.5,0,0,0,10.585-14.162c.184-.319.354-.646.528-.971s.35-.649.515-.978c.329-.659.666-1.314.973-1.984.635-1.328,1.211-2.683,1.75-4.051l.393-1.031c.133-.342.248-.691.373-1.037.253-.69.473-1.391.7-2.088.435-1.4.84-2.813,1.176-4.241a64.04,64.04,0,0,0,1.482-8.647l.03-.272.023-.273.046-.546.045-.545c.016-.182.031-.364.04-.546.041-.729.093-1.456.107-2.185C166.289,102.115,166.266,100.657,166.228,99.2ZM8.214,43.233l.105.312A3.178,3.178,0,0,1,8.214,43.233Z" transform="translate(-1.233 -1.187)"/><path class="cls-6" d="M100.007,39.734a58.411,58.411,0,0,1,19.12,2.585,59.345,59.345,0,0,1,17.367,8.731c1.324.955,2.6,1.979,3.836,3.046s2.434,2.184,3.585,3.347,2.247,2.382,3.3,3.639l.392.473c.132.157.262.315.387.477l.762.966.738.983c.246.328.479.665.719,1,.945,1.341,1.842,2.717,2.678,4.131s1.606,2.867,2.325,4.346,1.379,2.986,1.969,4.523,1.125,3.095,1.593,4.674a61.032,61.032,0,0,1,2,9.675q.307,2.454.405,4.931c.008.206.022.412.025.619l.013.618c.007.413.022.825.015,1.238l-.007,1.238-.038,1.237a60.513,60.513,0,0,1-3.956,19.356q-.891,2.317-1.962,4.562c-.714,1.5-1.5,2.954-2.334,4.385a60.853,60.853,0,0,1-5.693,8.135c-1.052,1.28-2.169,2.506-3.325,3.693s-2.36,2.328-3.61,3.417-2.547,2.123-3.88,3.108c-.335.243-.666.493-1.007.729l-1.021.709-1.038.685c-.172.115-.347.225-.523.335l-.528.329A60.758,60.758,0,0,1,114,159.2a61.478,61.478,0,0,1-19.746,1.258c-1.646-.166-3.288-.385-4.916-.683s-3.243-.659-4.842-1.082l-1.2-.331c-.4-.116-.792-.239-1.188-.358s-.787-.254-1.18-.381l-.588-.2-.583-.21c-1.557-.557-3.092-1.174-4.594-1.861a60.673,60.673,0,0,1-28.375-26.5c-.774-1.446-1.495-2.92-2.151-4.422S43.4,121.4,42.87,119.845s-.991-3.12-1.389-4.706l-.15-.594c-.048-.2-.091-.4-.137-.6l-.135-.6c-.046-.2-.091-.4-.129-.6l-.24-1.2-.209-1.207q-.393-2.416-.6-4.855-.192-2.437-.2-4.88l.011-1.22.042-1.219.022-.609.038-.609.08-1.215.115-1.213.059-.606.077-.6c.052-.4.1-.805.155-1.207l.189-1.2A58.033,58.033,0,0,1,46.7,72.644,60.861,60.861,0,0,0,41.509,91.05l-.13,1.187c-.036.4-.065.794-.1,1.191l-.048.595-.032.6L41.14,95.81,41.113,97l-.013.6,0,.6.01,1.192.041,1.19c.072,1.587.193,3.169.38,4.744s.449,3.137.762,4.688.7,3.088,1.129,4.606.93,3.02,1.494,4.494,1.174,2.928,1.844,4.355,1.408,2.819,2.192,4.184a59.438,59.438,0,0,0,5.332,7.77c.987,1.222,2.031,2.4,3.113,3.532s2.2,2.235,3.375,3.277a58.38,58.38,0,0,0,7.474,5.68c1.319.842,2.664,1.641,4.044,2.378s2.789,1.414,4.221,2.037,2.891,1.187,4.369,1.688,2.973.957,4.486,1.337,3.041.7,4.578.967,3.087.452,4.64.591a58.926,58.926,0,0,0,18.574-1.325c1.515-.357,3.015-.779,4.5-1.255l.554-.181c.186-.06.37-.121.553-.187l1.1-.39,1.091-.417c.182-.068.362-.142.542-.217l.54-.221q2.156-.9,4.238-1.956t4.063-2.3l.5-.309c.166-.1.331-.2.492-.314l.976-.642.96-.664c.32-.222.63-.457.946-.684q1.879-1.385,3.649-2.914c1.177-1.019,2.31-2.089,3.4-3.2s2.143-2.262,3.14-3.458,1.951-2.429,2.854-3.7l.668-.958.646-.974c.215-.324.417-.658.626-.986s.408-.664.608-1c.8-1.339,1.546-2.706,2.229-4.107s1.317-2.826,1.892-4.275a58.2,58.2,0,0,0,3.971-18.22l.054-1.171.026-1.173c.013-.391,0-.782,0-1.173l0-.587c0-.2-.01-.391-.015-.586-.013-.391-.019-.782-.039-1.173l-.064-1.171c-.024-.391-.061-.78-.09-1.17s-.069-.78-.11-1.169a58.052,58.052,0,0,0-1.715-9.228,59.123,59.123,0,0,0-3.189-8.846q-.975-2.144-2.118-4.209t-2.453-4.031c-.221-.326-.435-.657-.662-.979l-.681-.964-.7-.949c-.116-.16-.237-.315-.359-.47l-.364-.466q-1.463-1.857-3.067-3.6T139,55.592q-1.74-1.609-3.61-3.077t-3.847-2.788c-1.318-.881-2.68-1.7-4.066-2.471a59.672,59.672,0,0,0-8.676-3.949A61.3,61.3,0,0,0,100.007,39.734Z" transform="translate(-1.233 -1.187)"/><path class="cls-7" d="M119.164,127.2a1.414,1.414,0,0,1-.009.213h-3.04a1.375,1.375,0,0,0,.378.935,1.21,1.21,0,0,0,.89.343,1.358,1.358,0,0,0,.618-.146,1.116,1.116,0,0,0,.449-.4l.537.331a1.492,1.492,0,0,1-.657.576,2.131,2.131,0,0,1-.939.213,1.9,1.9,0,0,1-1.42-.56,2.067,2.067,0,0,1-.545-1.507,2.137,2.137,0,0,1,.513-1.5,1.9,1.9,0,0,1,2.7,0A2.154,2.154,0,0,1,119.164,127.2Zm-3.032-.339h2.326a1.328,1.328,0,0,0-.373-.841,1.157,1.157,0,0,0-1.581,0A1.332,1.332,0,0,0,116.132,126.857Z" transform="translate(-1.233 -1.187)"/><path class="cls-8" d="M122.051,129.263a1.588,1.588,0,0,1-.713-.166,1.224,1.224,0,0,1-.506-.426v.5h-.673V123.5h.673v2.217a1.239,1.239,0,0,1,.506-.426,1.6,1.6,0,0,1,.713-.165,1.685,1.685,0,0,1,1.316.56,2.466,2.466,0,0,1,0,3.014A1.689,1.689,0,0,1,122.051,129.263Zm-.071-3.559a1.337,1.337,0,0,0-.662.178,1.235,1.235,0,0,0-.486.478v1.672a1.233,1.233,0,0,0,.486.477,1.326,1.326,0,0,0,.662.178,1.1,1.1,0,0,0,.9-.391,2.047,2.047,0,0,0,0-2.2A1.1,1.1,0,0,0,121.98,125.7Z" transform="translate(-1.233 -1.187)"/><path class="cls-9" d="M130.811,129.168h-.673V126.58a.916.916,0,0,0-.213-.647.758.758,0,0,0-.582-.229,1.143,1.143,0,0,0-.673.229,1.385,1.385,0,0,0-.473.569v2.666h-.675V126.58a.916.916,0,0,0-.212-.647.756.756,0,0,0-.581-.229,1.151,1.151,0,0,0-.675.229,1.385,1.385,0,0,0-.473.569v2.666h-.673v-3.945h.673v.623a1.573,1.573,0,0,1,1.292-.717,1.333,1.333,0,0,1,.742.2,1.227,1.227,0,0,1,.469.568,1.565,1.565,0,0,1,.594-.564,1.619,1.619,0,0,1,.8-.209,1.271,1.271,0,0,1,.971.382,1.453,1.453,0,0,1,.36,1.038Z" transform="translate(-1.233 -1.187)"/><path class="cls-10" d="M132.625,126.281l-.578-.285a1.61,1.61,0,0,1,.65-.635,1.956,1.956,0,0,1,.955-.232,1.741,1.741,0,0,1,1.186.378,1.313,1.313,0,0,1,.434,1.042v2.619H134.6v-.5a1.1,1.1,0,0,1-.505.426,1.784,1.784,0,0,1-.77.166,1.649,1.649,0,0,1-1.043-.324,1.085,1.085,0,0,1-.409-.891,1.067,1.067,0,0,1,.413-.895,1.851,1.851,0,0,1,1.159-.32,5.505,5.505,0,0,1,1.155.1v-.4a.749.749,0,0,0-.261-.611,1.088,1.088,0,0,0-.718-.218,1.134,1.134,0,0,0-.577.158A1.09,1.09,0,0,0,132.625,126.281Zm1.973,1.68v-.489a5.673,5.673,0,0,0-1.115-.095q-.93,0-.93.663a.56.56,0,0,0,.232.474,1.028,1.028,0,0,0,.626.173,1.445,1.445,0,0,0,.754-.2A.907.907,0,0,0,134.6,127.961Z" transform="translate(-1.233 -1.187)"/><path class="cls-11" d="M137.085,126.281l-.578-.285a1.613,1.613,0,0,1,.651-.635,1.953,1.953,0,0,1,.954-.232,1.745,1.745,0,0,1,1.187.378,1.312,1.312,0,0,1,.433,1.042v2.619h-.673v-.5a1.109,1.109,0,0,1-.506.426,1.781,1.781,0,0,1-.77.166,1.645,1.645,0,0,1-1.042-.324,1.083,1.083,0,0,1-.41-.891,1.067,1.067,0,0,1,.413-.895,1.852,1.852,0,0,1,1.16-.32,5.512,5.512,0,0,1,1.155.1v-.4a.749.749,0,0,0-.261-.611,1.088,1.088,0,0,0-.718-.218,1.14,1.14,0,0,0-.578.158A1.09,1.09,0,0,0,137.085,126.281Zm1.974,1.68v-.489a5.687,5.687,0,0,0-1.115-.095q-.931,0-.931.663a.561.561,0,0,0,.233.474,1.025,1.025,0,0,0,.625.173,1.448,1.448,0,0,0,.755-.2A.911.911,0,0,0,139.059,127.961Z" transform="translate(-1.233 -1.187)"/></svg>