<svg id="Layer_1" data-name="Layer 1" xmlns="http://www.w3.org/2000/svg" xmlns:xlink="http://www.w3.org/1999/xlink" viewBox="0 0 83.907 36.148"><defs><style>.cls-1{fill:url(#linear-gradient);}.cls-2{fill:url(#linear-gradient-2);}.cls-3{fill:url(#linear-gradient-3);}</style><linearGradient id="linear-gradient" x1="-14.032" y1="-52.846" x2="45.512" y2="74.49" gradientUnits="userSpaceOnUse"><stop offset="0.302" stop-color="#bdd331"/><stop offset="0.466" stop-color="#80ca90"/><stop offset="0.58" stop-color="#59c4ce"/><stop offset="0.637" stop-color="#5bc0cd"/><stop offset="0.696" stop-color="#60b3ca"/><stop offset="0.756" stop-color="#689ec5"/><stop offset="0.817" stop-color="#7481be"/><stop offset="0.819" stop-color="#7580be"/></linearGradient><linearGradient id="linear-gradient-2" x1="28.157" y1="-72.574" x2="87.701" y2="54.762" xlink:href="#linear-gradient"/><linearGradient id="linear-gradient-3" x1="8.505" y1="-63.384" x2="68.048" y2="63.951" xlink:href="#linear-gradient"/></defs><path class="cls-1" d="M29.755,4.975a12.921,12.921,0,0,0-9.8-3.987,11.447,11.447,0,0,0-5.068,1.021,9.783,9.783,0,0,0-1.787,1.1,6.228,6.228,0,0,0-1.316,1.375,12.376,12.376,0,0,0-.9,1.553,5.892,5.892,0,0,0-.531,1.629c-.091.55-.151.983-.176,1.3s-.04.6-.04.845a3.024,3.024,0,0,0,.158.883l.392-.078A6.667,6.667,0,0,1,10.6,9.474a5.733,5.733,0,0,1,.313-1.69,7.661,7.661,0,0,1,4.518-4.793,10.386,10.386,0,0,1,4.205-.825A9.6,9.6,0,0,1,27.674,5.82a14.135,14.135,0,0,1,2.847,8.957,13.693,13.693,0,0,1-3.594,9.881,12.246,12.246,0,0,1-9.251,3.752A12.337,12.337,0,0,1,8.4,24.677Q4.789,20.947,4.79,14.306A20.194,20.194,0,0,1,5.909,7.549,9.356,9.356,0,0,1,9.582,2.678l-.236-.355A13.493,13.493,0,0,0,3.728,7.431,14.176,14.176,0,0,0,1.764,14.9,13.607,13.607,0,0,0,6.3,25.5a16.409,16.409,0,0,0,11.411,4.086,16.154,16.154,0,0,0,11.354-4.106A13.4,13.4,0,0,0,33.547,15.17,14.2,14.2,0,0,0,29.755,4.975Zm1.154,3.5V8.351a12.28,12.28,0,0,1,0,12.977S34.051,14.876,30.909,8.472Z"/><path class="cls-2" d="M80.14,15.74a9.481,9.481,0,0,0-5.854-2.731,4.4,4.4,0,0,0,1.61-1.1A5.844,5.844,0,0,0,77.39,7.647a5.3,5.3,0,0,0-2.22-4.419,9.524,9.524,0,0,0-5.913-1.69h-6.6v.393h.471a2.45,2.45,0,0,1,1.748.688,2.572,2.572,0,0,1,.8,1.747V27.23Q61.6,25.5,60.81,19.649l-.432.078V20.2a8.691,8.691,0,0,0,2.829,6.933q2.829,2.457,7.818,2.456a12.846,12.846,0,0,0,8.053-2.358,7.412,7.412,0,0,0,3.065-6.167A7.582,7.582,0,0,0,80.14,15.74Zm-4.393-5.606s.844-2.849-.358-4.943A4.162,4.162,0,0,1,75.747,10.134Zm1.347,15.977a8.116,8.116,0,0,1-5.872,2.024,20.1,20.1,0,0,1-2.986-.2V2.8h.51q5.7,0,5.7,5.186a5.265,5.265,0,0,1-1.434,4.066,4.91,4.91,0,0,1-3.437,1.316h-.041l.041.353h.038q4.716,0,7.307,2A5.653,5.653,0,0,1,78.548,17.8a6.942,6.942,0,0,1,.648,3.065A6.95,6.95,0,0,1,77.094,26.111Zm3.468-8.357a5.636,5.636,0,0,1,0,6.149A8.78,8.78,0,0,0,80.562,17.754Z"/><path class="cls-3" d="M69.691,35.4A9.575,9.575,0,0,1,65.1,34.145a14.854,14.854,0,0,1-2.613-1.826q-1.473-1.238-3.4-3.164t-8.722-9.428q-1.689-1.886-3.023-3.3h.038a5.932,5.932,0,0,0,4.715-2.3,8.3,8.3,0,0,0,1.924-5.5,6.682,6.682,0,0,0-2.1-5.147,7.861,7.861,0,0,0-5.558-1.944H35.749v.393h.511a2.387,2.387,0,0,1,1.749.726,2.539,2.539,0,0,1,.766,1.749v21.8a2.552,2.552,0,0,1-2.515,2.435h-.511v.393h8.6l-.039-.393h-.47a2.517,2.517,0,0,1-2.515-2.475V2.756H46.2a4.3,4.3,0,0,1,3.595,1.768,7.563,7.563,0,0,1,1.276,4.6q0,3.458-2.318,4.95a4.658,4.658,0,0,1-1.453.688,10.4,10.4,0,0,1-1.631.353,29.767,29.767,0,0,1-3.043.1V15.6q.744.079,2.121,1.61T50.325,23.4q4.2,4.655,5.676,6.344a25.886,25.886,0,0,0,3.28,3.143,13.488,13.488,0,0,0,1.965,1.453,14.845,14.845,0,0,0,2.1,1.041,9.831,9.831,0,0,0,2.1.609,14.519,14.519,0,0,0,2.258.157,11.685,11.685,0,0,0,2.928-.432v-.393A5.773,5.773,0,0,1,69.691,35.4ZM52.673,10.618s.844-2.849-.358-4.943A4.162,4.162,0,0,1,52.673,10.618Zm5.683,19.145s3.544,3.963,7.7,5.477A13.023,13.023,0,0,1,58.356,29.763Z"/></svg>